<svg width="252.96" height="49.788" xmlns="http://www.w3.org/2000/svg"><defs><linearGradient id="c" x1="342.96" x2="342.96" y1="379.6" y2="85.562" gradientTransform="translate(.406)" gradientUnits="userSpaceOnUse"><stop stop-color="#098fcb" offset="0"/><stop stop-color="#a8e4ff" offset="1"/></linearGradient><linearGradient id="b" x1="342.96" x2="342.96" y1="379.6" y2="85.562" gradientTransform="translate(.406 101.23)" gradientUnits="userSpaceOnUse"><stop stop-color="#245583" offset="0"/><stop stop-color="#088fcb" offset="1"/></linearGradient><linearGradient id="a" x1="342.96" x2="342.96" y1="379.6" y2="85.562" gradientTransform="translate(.406 202.46)" gradientUnits="userSpaceOnUse"><stop stop-color="#132e47" offset="0"/><stop stop-color="#245582" offset="1"/></linearGradient></defs><path d="M339.91 287.75c21.811 0 33.178 5.09 33.178 5.09l215.49 123.43s8.902 7.095 9.093 18.583c.19 11.489-8.667 19.306-8.667 19.306l-208.2 120.84s-13.377 8.177-36.995 8.177-37.125-6.403-37.125-6.403l-199.82-114.47s-20.87-10.847-21.231-26.173c-.362-15.326 15.239-23.543 15.239-23.543l206.7-119.32s10.527-5.52 32.338-5.52z" fill="url(#a)" transform="matrix(.1 0 0 .1 -8.6 -8.52)"/><path d="M339.92 186.52c21.811 0 33.178 5.09 33.178 5.09l215.49 123.43s8.902 7.095 9.093 18.583c.19 11.489-8.667 19.306-8.667 19.306l-208.2 120.84s-13.378 8.177-36.996 8.177-37.124-6.403-37.124-6.403l-199.82-114.47s-20.87-10.847-21.231-26.173c-.362-15.326 15.239-23.543 15.239-23.543l206.7-119.32s10.527-5.52 32.338-5.52z" fill="url(#b)" transform="matrix(.1 0 0 .1 -8.6 -8.52)"/><path d="M339.91 85.289c21.811 0 33.178 5.09 33.178 5.09l215.49 123.43s8.902 7.095 9.093 18.583-8.667 19.306-8.667 19.306l-208.2 120.84s-13.377 8.177-36.995 8.177-37.125-6.403-37.125-6.403l-199.82-114.47s-20.87-10.847-21.231-26.173 15.239-23.543 15.239-23.543l206.7-119.32s10.527-5.52 32.338-5.52z" fill="url(#c)" transform="matrix(.1 0 0 .1 -8.6 -8.52)"/><g stroke-width=".1" aria-label="Authenticator Pro"><path d="M69.1 32.54q-.17 0-.32-.128-.128-.128-.128-.32 0-.085.043-.192l5.141-13.76q.064-.213.235-.363.192-.17.512-.17h2.325q.32 0 .491.17.17.15.256.363l5.141 13.76q.021.107.021.192 0 .192-.128.32t-.298.128h-1.856q-.3 0-.448-.128-.128-.15-.171-.277l-1.003-2.603h-6.336l-1.002 2.603q-.043.128-.192.277-.128.128-.427.128zm4.224-5.461h4.843l-2.432-6.592zM88.5 32.75q-1.301 0-2.261-.576-.939-.597-1.451-1.664-.512-1.088-.512-2.56v-5.995q0-.213.15-.362.149-.15.362-.15h1.877q.235 0 .363.15.15.149.15.362v5.867q0 2.645 2.325 2.645 1.109 0 1.749-.704.661-.704.661-1.941v-5.867q0-.213.15-.362.149-.15.362-.15h1.878q.213 0 .362.15.15.149.15.362v10.07q0 .213-.15.362-.149.15-.362.15h-1.728q-.235 0-.384-.15-.128-.15-.128-.363v-.874q-.576.746-1.43 1.173-.853.427-2.133.427zM102.7 32.54q-1.28 0-2.155-.448t-1.301-1.323q-.427-.896-.427-2.218v-4.843h-1.685q-.213 0-.363-.15t-.149-.383v-1.216q0-.214.15-.363.149-.15.362-.15h1.685v-3.54q0-.214.128-.363.15-.15.384-.15h1.728q.214 0 .363.15.15.149.15.362v3.542h2.666q.213 0 .363.149.149.15.149.363v1.216q0 .234-.15.384-.149.149-.362.149h-2.667v4.63q0 .874.299 1.365.32.49 1.088.49h1.472q.213 0 .363.15.149.149.149.362v1.323q0 .213-.15.363-.149.149-.362.149zM107.3 32.54q-.213 0-.363-.15-.149-.149-.149-.362V17.905q0-.213.15-.363t.362-.149h1.899q.234 0 .362.15.15.149.15.362v4.864q.576-.683 1.408-1.11.832-.426 2.048-.426 1.301 0 2.261.597.981.576 1.515 1.643.533 1.067.533 2.56v5.995q0 .213-.15.362-.149.15-.362.15h-1.92q-.213 0-.363-.15-.149-.149-.149-.362V26.16q0-1.237-.619-1.941-.597-.704-1.749-.704-1.11 0-1.792.704-.661.704-.661 1.941v5.867q0 .213-.15.362-.128.15-.362.15zM125 32.75q-2.368 0-3.755-1.365-1.386-1.366-1.493-3.883-.021-.213-.021-.533 0-.342.021-.534.085-1.621.725-2.773.662-1.173 1.814-1.792 1.152-.64 2.709-.64 1.728 0 2.901.725 1.174.704 1.771 1.984.597 1.26.597 2.923v.448q0 .213-.149.363-.15.15-.384.15h-7.083V27.992q.021.746.278 1.386.277.62.789 1.003.533.384 1.259.384.597 0 1.002-.17.406-.193.662-.427.256-.235.362-.384.192-.256.299-.299.128-.064.363-.064h1.834q.214 0 .342.128.149.128.128.32-.021.341-.363.832-.32.49-.939.96-.618.47-1.557.79-.917.298-2.112.298zm-2.347-6.72h4.715v-.064q0-.832-.277-1.45-.278-.64-.811-.982-.533-.363-1.28-.363t-1.28.363q-.533.341-.81.981-.257.619-.257 1.451zM133 32.54q-.213 0-.363-.15-.149-.149-.149-.362V21.959q0-.213.15-.363.149-.149.362-.149h1.75q.213 0 .362.15.15.149.15.362v.875q.554-.683 1.407-1.131.875-.47 2.155-.47 1.301 0 2.261.598.96.576 1.472 1.643.534 1.066.534 2.56v5.994q0 .214-.15.363-.149.15-.362.15H140.7q-.213 0-.362-.15-.15-.15-.15-.363v-5.866q0-1.238-.618-1.942-.598-.704-1.75-.704-1.109 0-1.77.704-.662.704-.662 1.942v5.866q0 .214-.149.363-.15.15-.363.15zM150.7 32.54q-1.28 0-2.155-.448-.874-.448-1.301-1.323-.427-.896-.427-2.218v-4.843h-1.685q-.213 0-.363-.15-.149-.149-.149-.383v-1.216q0-.214.15-.363.149-.15.362-.15h1.685v-3.54q0-.214.128-.363.15-.15.384-.15h1.728q.214 0 .363.15t.15.362v3.542h2.666q.213 0 .363.149.149.15.149.363v1.216q0 .234-.15.384-.149.149-.362.149h-2.667v4.63q0 .874.299 1.365.32.49 1.088.49h1.472q.213 0 .363.15.149.149.149.362v1.323q0 .213-.15.363-.149.149-.362.149zM155.4 32.54q-.213 0-.363-.15-.149-.149-.149-.362V21.959q0-.213.15-.363.149-.149.362-.149h1.77q.235 0 .363.15.15.149.15.362v10.069q0 .213-.15.363-.128.149-.362.149zm-.085-12.928q-.213 0-.363-.15-.149-.149-.149-.362v-1.536q0-.213.15-.363.149-.149.362-.149h1.941q.235 0 .384.15.15.149.15.362V19.1q0 .213-.15.363-.149.149-.384.149zM165.3 32.75q-1.536 0-2.71-.576-1.151-.576-1.813-1.664-.64-1.11-.704-2.667-.02-.32-.02-.832 0-.533.02-.874.064-1.558.704-2.646.662-1.109 1.814-1.685 1.173-.576 2.709-.576 1.365 0 2.325.384.96.363 1.579.96.619.576.917 1.216.32.619.342 1.13.02.235-.15.385-.15.128-.362.128h-1.878q-.213 0-.341-.107-.107-.107-.213-.32-.32-.853-.854-1.195-.512-.362-1.322-.362-1.067 0-1.707.682-.619.662-.661 2.112-.043.811 0 1.494.043 1.472.661 2.133.64.661 1.707.661.832 0 1.344-.341.512-.363.832-1.216.106-.213.213-.32.128-.107.341-.107h1.878q.213 0 .362.15.17.128.15.362-.021.384-.214.875-.17.47-.576.981-.384.491-.981.918-.597.405-1.45.661-.833.256-1.942.256zM175.9 32.75q-1.11 0-2.005-.427-.896-.448-1.43-1.173-.512-.747-.512-1.664 0-1.493 1.216-2.368 1.216-.896 3.179-1.195l2.923-.426v-.448q0-.896-.448-1.387-.448-.49-1.536-.49-.768 0-1.259.32-.47.298-.704.81-.17.277-.49.277h-1.686q-.235 0-.363-.128-.106-.128-.106-.341.02-.341.277-.832.277-.49.81-.939.555-.469 1.43-.789t2.112-.32q1.344 0 2.261.341.939.32 1.494.875.554.555.81 1.301t.256 1.579v6.699q0 .213-.149.362-.15.15-.363.15h-1.728q-.234 0-.384-.15-.128-.149-.128-.362v-.832q-.277.384-.746.746-.47.363-1.152.598-.662.213-1.579.213zm.725-2.027q.747 0 1.344-.32.619-.32.96-.981.363-.683.363-1.707v-.448l-2.133.342q-1.259.192-1.878.618-.618.427-.618 1.046 0 .469.277.81.299.32.747.49.448.15.938.15zM189.8 32.54q-1.28 0-2.155-.448-.874-.448-1.301-1.323-.427-.896-.427-2.218v-4.843h-1.685q-.213 0-.363-.15-.149-.149-.149-.383v-1.216q0-.214.15-.363.149-.15.362-.15h1.685v-3.54q0-.214.128-.363.15-.15.384-.15h1.728q.214 0 .363.15.15.149.15.362v3.542h2.666q.213 0 .363.149.149.15.149.363v1.216q0 .234-.15.384t-.362.149h-2.667v4.63q0 .874.299 1.365.32.49 1.088.49h1.472q.213 0 .363.15t.149.362v1.323q0 .213-.15.363-.149.149-.362.149zM198.8 32.75q-1.707 0-2.88-.597-1.152-.598-1.77-1.686-.598-1.088-.683-2.538-.021-.384-.021-.939 0-.555.02-.939.086-1.472.705-2.538.64-1.088 1.792-1.686 1.173-.597 2.837-.597t2.816.597q1.173.598 1.792 1.686.64 1.066.725 2.538.021.384.021.939 0 .555-.02.939-.086 1.45-.705 2.538-.597 1.088-1.77 1.686-1.152.597-2.859.597zm0-2.112q1.13 0 1.75-.704.618-.725.682-2.112.021-.32.021-.832t-.021-.832q-.064-1.387-.683-2.09-.618-.726-1.749-.726-1.13 0-1.75.725-.618.704-.682 2.091-.021.32-.021.832t.021.832q.064 1.387.683 2.112.618.704 1.749.704zM207.1 32.54q-.213 0-.363-.15-.149-.149-.149-.362V21.98q0-.235.15-.384.149-.15.362-.15h1.728q.213 0 .363.15.17.15.17.384v.875q.491-.683 1.259-1.046.79-.362 1.813-.362h.875q.235 0 .363.149.149.15.149.363v1.536q0 .213-.15.362-.127.15-.362.15h-1.664q-1.024 0-1.6.576-.555.554-.555 1.578v5.867q0 .213-.149.363-.15.15-.384.15zM220.6 32.54q-.213 0-.363-.15-.149-.149-.149-.362V18.14q0-.235.15-.384.149-.15.362-.15h5.717q1.664 0 2.902.534 1.237.512 1.92 1.579.682 1.045.682 2.624 0 1.6-.682 2.645-.683 1.024-1.92 1.536t-2.902.512h-3.178v4.992q0 .213-.15.363-.128.149-.362.149zm2.496-7.872h3.115q1.237 0 1.898-.576.662-.597.662-1.75 0-1.066-.62-1.706-.618-.661-1.94-.661h-3.115zM234.4 32.54q-.213 0-.363-.15-.149-.149-.149-.362V21.98q0-.235.15-.384.149-.15.362-.15h1.728q.213 0 .363.15.17.15.17.384v.875q.491-.683 1.259-1.046.79-.362 1.813-.362h.875q.235 0 .363.149.149.15.149.363v1.536q0 .213-.15.362-.127.15-.362.15h-1.664q-1.024 0-1.6.576-.555.554-.555 1.578v5.867q0 .213-.149.363-.15.15-.384.15zM247.6 32.75q-1.707 0-2.88-.597-1.152-.598-1.77-1.686-.598-1.088-.683-2.538-.021-.384-.021-.939 0-.555.02-.939.086-1.472.705-2.538.64-1.088 1.792-1.686 1.173-.597 2.837-.597t2.816.597q1.173.598 1.792 1.686.64 1.066.725 2.538.021.384.021.939 0 .555-.02.939-.086 1.45-.705 2.538-.597 1.088-1.77 1.686-1.152.597-2.859.597zm0-2.112q1.13 0 1.75-.704.618-.725.682-2.112.021-.32.021-.832t-.021-.832q-.064-1.387-.683-2.09-.618-.726-1.749-.726t-1.75.725q-.618.704-.682 2.091-.021.32-.021.832t.021.832q.064 1.387.683 2.112.618.704 1.749.704z"/></g></svg>