<?xml version="1.0" encoding="UTF-8"?>
<svg width="160.12" height="49.789" version="1.1" xmlns="http://www.w3.org/2000/svg">
 <defs>
  <linearGradient id="c" x1="342.96" x2="342.96" y1="379.6" y2="85.562" gradientTransform="translate(.406)" gradientUnits="userSpaceOnUse">
   <stop stop-color="#098fcb" offset="0"/>
   <stop stop-color="#a8e4ff" offset="1"/>
  </linearGradient>
  <linearGradient id="b" x1="342.96" x2="342.96" y1="379.6" y2="85.562" gradientTransform="translate(.406 101.23)" gradientUnits="userSpaceOnUse">
   <stop stop-color="#245583" offset="0"/>
   <stop stop-color="#088fcb" offset="1"/>
  </linearGradient>
  <linearGradient id="a" x1="342.96" x2="342.96" y1="379.6" y2="85.562" gradientTransform="translate(.406 202.46)" gradientUnits="userSpaceOnUse">
   <stop stop-color="#132e47" offset="0"/>
   <stop stop-color="#245582" offset="1"/>
  </linearGradient>
 </defs>
 <g transform="translate(.03732 -.0086)">
  <path transform="matrix(.1 0 0 .1 -8.6 -8.52)" d="m339.91 287.75c21.811 0 33.178 5.09 33.178 5.09l215.49 123.43s8.902 7.095 9.093 18.583c0.19 11.489-8.667 19.306-8.667 19.306l-208.2 120.84s-13.377 8.177-36.995 8.177-37.125-6.403-37.125-6.403l-199.82-114.47s-20.87-10.847-21.231-26.173c-0.362-15.326 15.239-23.543 15.239-23.543l206.7-119.32s10.527-5.52 32.338-5.52z" fill="url(#a)"/>
  <path transform="matrix(.1 0 0 .1 -8.6 -8.52)" d="m339.92 186.52c21.811 0 33.178 5.09 33.178 5.09l215.49 123.43s8.902 7.095 9.093 18.583c0.19 11.489-8.667 19.306-8.667 19.306l-208.2 120.84s-13.378 8.177-36.996 8.177-37.124-6.403-37.124-6.403l-199.82-114.47s-20.87-10.847-21.231-26.173c-0.362-15.326 15.239-23.543 15.239-23.543l206.7-119.32s10.527-5.52 32.338-5.52z" fill="url(#b)"/>
  <path transform="matrix(.1 0 0 .1 -8.6 -8.52)" d="m339.91 85.289c21.811 0 33.178 5.09 33.178 5.09l215.49 123.43s8.902 7.095 9.093 18.583-8.667 19.306-8.667 19.306l-208.2 120.84s-13.377 8.177-36.995 8.177-37.125-6.403-37.125-6.403l-199.82-114.47s-20.87-10.847-21.231-26.173 15.239-23.543 15.239-23.543l206.7-119.32s10.527-5.52 32.338-5.52z" fill="url(#c)"/>
 </g>
 <path d="m73.334 33.535q-2.232 0-3.744-0.648-1.488-0.672-2.28-1.728-0.768-1.08-0.816-2.256 0-0.216 0.144-0.36t0.36-0.144h2.136q0.312 0 0.456 0.144 0.168 0.12 0.288 0.312 0.144 0.456 0.552 0.912 0.408 0.432 1.104 0.72 0.72 0.288 1.8 0.288 1.728 0 2.568-0.576 0.864-0.576 0.864-1.56 0-0.696-0.456-1.104-0.456-0.432-1.416-0.768-0.936-0.36-2.496-0.744-1.8-0.432-3.024-1.032-1.2-0.624-1.824-1.56-0.6-0.936-0.6-2.376 0-1.392 0.744-2.472 0.768-1.08 2.16-1.704 1.416-0.624 3.36-0.624 1.56 0 2.76 0.432 1.2 0.408 1.992 1.104 0.792 0.672 1.2 1.464 0.432 0.768 0.456 1.512 0 0.192-0.144 0.36-0.12 0.144-0.36 0.144h-2.232q-0.192 0-0.384-0.096t-0.312-0.36q-0.144-0.744-0.936-1.272t-2.04-0.528q-1.296 0-2.088 0.48t-0.792 1.488q0 0.672 0.384 1.128 0.408 0.432 1.272 0.768 0.888 0.336 2.328 0.72 2.04 0.456 3.336 1.056t1.896 1.536q0.6 0.912 0.6 2.328 0 1.584-0.864 2.712-0.84 1.104-2.376 1.704t-3.576 0.6zm14.928-0.24q-1.44 0-2.424-0.504t-1.464-1.488q-0.48-1.008-0.48-2.496v-5.448h-1.896q-0.24 0-0.408-0.168t-0.168-0.432v-1.368q0-0.24 0.168-0.408t0.408-0.168h1.896v-3.984q0-0.24 0.144-0.408 0.168-0.168 0.432-0.168h1.944q0.24 0 0.408 0.168t0.168 0.408v3.984h3q0.24 0 0.408 0.168t0.168 0.408v1.368q0 0.264-0.168 0.432t-0.408 0.168h-3v5.208q0 0.984 0.336 1.536 0.36 0.552 1.224 0.552h1.656q0.24 0 0.408 0.168t0.168 0.408v1.488q0 0.24-0.168 0.408t-0.408 0.168zm5.232 0q-0.24 0-0.408-0.168t-0.168-0.408v-11.304q0-0.264 0.168-0.432t0.408-0.168h1.944q0.24 0 0.408 0.168 0.192 0.168 0.192 0.432v0.984q0.552-0.768 1.416-1.176 0.888-0.408 2.04-0.408h0.984q0.264 0 0.408 0.168 0.168 0.168 0.168 0.408v1.728q0 0.24-0.168 0.408-0.144 0.168-0.408 0.168h-1.872q-1.152 0-1.8 0.648-0.624 0.624-0.624 1.776v6.6q0 0.24-0.168 0.408t-0.432 0.168zm12.864 0.24q-1.248 0-2.256-0.48-1.008-0.504-1.608-1.32-0.576-0.84-0.576-1.872 0-1.68 1.368-2.664 1.368-1.008 3.576-1.344l3.288-0.48v-0.504q0-1.008-0.504-1.56t-1.728-0.552q-0.864 0-1.416 0.36-0.528 0.336-0.792 0.912-0.192 0.312-0.552 0.312h-1.896q-0.264 0-0.408-0.144-0.12-0.144-0.12-0.384 0.024-0.384 0.312-0.936 0.312-0.552 0.912-1.056 0.624-0.528 1.608-0.888t2.376-0.36q1.512 0 2.544 0.384 1.056 0.36 1.68 0.984t0.912 1.464 0.288 1.776v7.536q0 0.24-0.168 0.408t-0.408 0.168h-1.944q-0.264 0-0.432-0.168-0.144-0.168-0.144-0.408v-0.936q-0.312 0.432-0.84 0.84t-1.296 0.672q-0.744 0.24-1.776 0.24zm0.816-2.28q0.84 0 1.512-0.36 0.696-0.36 1.08-1.104 0.408-0.768 0.408-1.92v-0.504l-2.4 0.384q-1.416 0.216-2.112 0.696t-0.696 1.176q0 0.528 0.312 0.912 0.336 0.36 0.84 0.552 0.504 0.168 1.056 0.168zm14.784 2.04q-1.44 0-2.424-0.504t-1.464-1.488q-0.48-1.008-0.48-2.496v-5.448h-1.896q-0.24 0-0.408-0.168t-0.168-0.432v-1.368q0-0.24 0.168-0.408t0.408-0.168h1.896v-3.984q0-0.24 0.144-0.408 0.168-0.168 0.432-0.168h1.944q0.24 0 0.408 0.168t0.168 0.408v3.984h3q0.24 0 0.408 0.168t0.168 0.408v1.368q0 0.264-0.168 0.432t-0.408 0.168h-3v5.208q0 0.984 0.336 1.536 0.36 0.552 1.224 0.552h1.656q0.24 0 0.408 0.168t0.168 0.408v1.488q0 0.24-0.168 0.408t-0.408 0.168zm9.288 0.24q-1.464 0-2.544-0.648-1.056-0.672-1.632-1.872-0.576-1.224-0.576-2.88v-6.744q0-0.24 0.168-0.408t0.408-0.168h2.112q0.264 0 0.408 0.168 0.168 0.168 0.168 0.408v6.6q0 2.976 2.616 2.976 1.248 0 1.968-0.792 0.744-0.792 0.744-2.184v-6.6q0-0.24 0.168-0.408t0.408-0.168h2.112q0.24 0 0.408 0.168t0.168 0.408v11.328q0 0.24-0.168 0.408t-0.408 0.168h-1.944q-0.264 0-0.432-0.168-0.144-0.168-0.144-0.408v-0.984q-0.648 0.84-1.608 1.32t-2.4 0.48zm10.848-0.24q-0.24 0-0.408-0.168t-0.168-0.408v-11.328q0-0.24 0.168-0.408t0.408-0.168h1.872q0.24 0 0.408 0.168t0.168 0.408v0.816q0.504-0.672 1.344-1.128 0.864-0.48 2.04-0.504 2.736-0.048 3.816 2.136 0.552-0.96 1.584-1.536 1.056-0.6 2.328-0.6 1.248 0 2.256 0.576 1.032 0.576 1.608 1.752 0.6 1.152 0.6 2.928v6.888q0 0.24-0.168 0.408t-0.408 0.168h-1.968q-0.24 0-0.408-0.168t-0.168-0.408v-6.696q0-1.08-0.312-1.704-0.312-0.648-0.84-0.912t-1.176-0.264q-0.528 0-1.056 0.264t-0.864 0.912q-0.336 0.624-0.336 1.704v6.696q0 0.24-0.168 0.408t-0.408 0.168h-1.968q-0.24 0-0.408-0.168t-0.168-0.408v-6.696q0-1.08-0.336-1.704-0.336-0.648-0.864-0.912t-1.128-0.264q-0.552 0-1.08 0.288-0.528 0.264-0.864 0.888t-0.336 1.704v6.696q0 0.24-0.168 0.408t-0.408 0.168z" fill="#1a1a1a" aria-label="Stratum"/>
</svg>
