<?xml version="1.0" standalone="no"?>
<!DOCTYPE svg PUBLIC "-//W3C//DTD SVG 20010904//EN"
 "http://www.w3.org/TR/2001/REC-SVG-20010904/DTD/svg10.dtd">
<svg version="1.0" xmlns="http://www.w3.org/2000/svg"
 width="816.000000pt" height="816.000000pt" viewBox="0 0 816.000000 816.000000"
 preserveAspectRatio="xMidYMid meet">
<metadata>
Created by potrace 1.14, written by Peter Selinger 2001-2017
</metadata>
<g transform="translate(0.000000,816.000000) scale(0.100000,-0.100000)"
fill="#000000" stroke="none">
<path d="M3900 8047 c-3 -3 -34 -8 -69 -11 -35 -4 -91 -14 -125 -22 -33 -8
-70 -17 -81 -19 -38 -9 -81 -29 -186 -90 -58 -34 -112 -65 -120 -68 -8 -4 -21
-11 -29 -17 -33 -21 -151 -90 -154 -90 -9 0 -131 -75 -134 -82 -2 -5 -11 -8
-20 -8 -8 0 -23 -7 -32 -15 -8 -8 -43 -28 -75 -46 -33 -17 -67 -37 -75 -44 -8
-8 -26 -18 -40 -24 -14 -6 -43 -22 -65 -36 -22 -14 -49 -29 -60 -35 -11 -5
-41 -22 -67 -37 -129 -76 -236 -138 -263 -151 -16 -9 -32 -18 -35 -22 -3 -4
-18 -13 -35 -22 -16 -8 -59 -32 -95 -53 -110 -64 -134 -77 -180 -103 -25 -14
-57 -33 -72 -43 -14 -11 -28 -19 -31 -19 -9 0 -132 -74 -138 -83 -3 -5 -10 -9
-15 -9 -5 0 -27 -10 -49 -23 -22 -13 -118 -69 -214 -124 -96 -56 -177 -101
-180 -101 -4 0 -16 -7 -26 -15 -16 -13 -296 -177 -445 -260 -19 -11 -37 -23
-38 -28 -2 -4 -7 -5 -12 -2 -4 3 -13 -2 -20 -10 -7 -8 -16 -15 -20 -15 -5 0
-43 -20 -84 -45 -42 -25 -81 -45 -86 -45 -6 0 -10 -4 -10 -10 0 -5 -6 -10 -14
-10 -8 0 -21 -6 -28 -13 -7 -7 -24 -18 -38 -25 -14 -6 -32 -16 -40 -22 -8 -5
-56 -33 -106 -62 -113 -66 -166 -109 -214 -173 -81 -110 -100 -246 -50 -350
13 -27 27 -52 30 -55 4 -3 11 -12 16 -22 5 -9 28 -36 50 -60 75 -78 113 -104
354 -243 113 -65 225 -129 250 -143 25 -13 50 -28 55 -32 6 -4 30 -19 55 -32
175 -97 168 -91 127 -117 -19 -11 -39 -21 -46 -21 -6 0 -11 -4 -11 -10 0 -5
-5 -10 -11 -10 -6 0 -65 -33 -132 -72 -67 -40 -142 -83 -167 -97 -25 -13 -57
-32 -72 -42 -14 -11 -28 -19 -31 -19 -9 0 -282 -162 -317 -188 -60 -46 -109
-105 -143 -172 -29 -58 -32 -73 -31 -152 0 -55 5 -93 12 -100 7 -7 12 -18 12
-26 0 -43 127 -180 232 -249 96 -63 108 -71 138 -85 14 -7 27 -15 30 -18 4 -4
30 -19 111 -63 13 -7 43 -25 66 -40 24 -15 44 -27 47 -27 2 0 58 -31 125 -70
66 -38 125 -70 130 -70 5 0 11 -4 13 -8 2 -5 17 -15 33 -23 17 -8 30 -20 30
-28 0 -11 -186 -126 -300 -186 -44 -23 -71 -39 -87 -53 -8 -6 -17 -10 -20 -7
-3 3 -11 -1 -18 -10 -7 -8 -19 -15 -26 -15 -8 0 -14 -4 -14 -10 0 -5 -4 -10
-9 -10 -5 0 -49 -23 -98 -51 -48 -28 -104 -60 -123 -71 -86 -49 -109 -65 -165
-123 -85 -86 -118 -158 -120 -260 -2 -66 2 -89 21 -130 31 -66 44 -84 76 -117
15 -16 25 -28 22 -28 -21 0 216 -174 238 -175 4 0 13 -6 19 -13 7 -6 17 -12
21 -12 5 0 27 -12 51 -27 23 -15 44 -28 47 -28 5 -1 132 -73 190 -109 19 -12
49 -28 65 -36 17 -8 32 -17 35 -20 5 -5 24 -16 99 -57 25 -14 51 -29 56 -33 6
-4 30 -19 55 -32 25 -14 65 -37 90 -52 25 -14 61 -34 80 -44 19 -9 37 -20 40
-23 3 -3 30 -19 60 -35 30 -16 57 -31 60 -35 3 -3 12 -9 20 -12 8 -4 33 -18
55 -32 22 -13 49 -28 61 -33 11 -6 55 -31 98 -56 43 -25 79 -46 81 -46 2 0 33
-18 69 -40 36 -22 70 -40 76 -40 5 0 10 -3 10 -8 0 -4 17 -15 38 -25 20 -9 78
-42 127 -72 50 -29 96 -54 103 -54 6 -1 12 -4 12 -8 0 -5 10 -13 23 -18 31
-15 111 -59 117 -65 6 -6 43 -27 95 -54 22 -12 46 -26 53 -33 6 -6 22 -15 35
-19 12 -3 29 -12 37 -19 8 -7 35 -24 60 -37 92 -51 146 -82 175 -100 17 -10
38 -21 48 -24 9 -4 17 -9 17 -13 0 -3 15 -13 32 -20 18 -8 53 -27 78 -42 91
-55 245 -144 250 -144 3 0 16 -8 30 -16 57 -36 290 -169 295 -169 4 0 25 -13
48 -28 39 -27 69 -42 92 -47 6 -2 37 -11 70 -21 33 -10 66 -19 74 -20 7 -1 35
-8 60 -14 26 -6 52 -10 57 -9 5 1 11 0 14 -1 18 -7 87 -12 245 -15 145 -2 200
1 280 16 110 21 192 43 245 66 19 9 41 17 49 19 8 1 27 12 42 23 16 12 31 21
33 21 3 0 51 27 107 60 55 33 105 60 110 60 5 0 9 4 9 8 0 4 12 13 28 19 15 7
50 26 77 43 28 17 61 36 75 43 14 6 27 14 30 17 3 3 16 11 30 19 14 8 63 37
110 64 47 27 101 58 120 69 19 11 50 29 68 40 18 11 50 30 71 41 38 21 306
176 346 200 77 47 100 60 128 76 176 100 253 146 259 155 4 6 8 8 8 4 0 -9
103 52 108 64 2 4 9 8 16 8 7 0 39 16 72 36 62 38 107 64 189 110 28 15 52 31
55 35 3 4 17 12 30 18 14 6 48 24 75 41 28 17 69 40 93 52 23 12 42 26 42 30
0 4 4 8 10 8 8 0 121 64 250 140 85 51 153 90 155 90 2 0 76 43 165 95 89 52
166 95 171 95 5 0 9 4 9 9 0 5 12 14 28 20 29 11 54 26 140 79 29 17 57 32 62
32 6 0 10 5 10 10 0 6 6 10 13 10 26 0 98 97 126 168 70 176 7 363 -157 468
-29 19 -54 34 -56 34 -2 0 -59 32 -127 71 -68 40 -144 83 -169 97 -67 37 -213
121 -230 132 -8 6 -22 13 -30 17 -8 4 -37 21 -65 38 -27 17 -71 42 -96 55 -26
13 -45 29 -43 34 5 11 257 158 282 164 6 2 12 8 12 13 0 5 6 9 14 9 8 0 21 6
28 13 7 6 35 23 61 37 26 13 47 28 47 32 0 5 3 7 8 6 11 -3 82 35 82 44 0 4 9
8 20 8 11 0 20 4 20 9 0 5 12 15 28 22 30 16 156 88 214 122 57 34 88 61 88
74 0 7 4 13 9 13 6 0 27 34 47 76 34 67 38 86 40 157 1 44 -3 92 -8 106 -19
48 -52 116 -62 129 -40 48 -77 82 -116 104 -25 14 -61 35 -80 46 -19 10 -75
43 -125 72 -49 29 -108 62 -130 75 -22 12 -58 32 -80 45 -22 13 -60 34 -85 48
-25 14 -62 36 -82 49 -21 12 -42 23 -48 23 -5 0 -10 5 -10 11 0 5 -4 8 -9 4
-5 -3 -13 0 -16 5 -4 6 -17 15 -28 20 -43 19 -122 68 -122 77 0 4 14 14 30 22
17 8 32 17 35 20 3 3 19 13 35 21 17 8 35 19 40 23 13 10 400 235 440 255 17
9 32 18 35 22 3 3 32 21 65 40 177 98 191 108 228 153 18 23 47 69 63 102 26
54 28 70 28 158 0 61 -5 102 -12 109 -7 7 -12 20 -12 30 0 10 -4 18 -10 18 -5
0 -9 4 -7 8 4 14 -67 112 -85 118 -10 3 -18 8 -18 12 0 4 -26 21 -58 37 -31
17 -59 33 -62 36 -3 3 -21 14 -40 24 -19 9 -43 25 -54 34 -10 9 -21 15 -25 14
-3 0 -33 15 -66 34 -69 41 -115 67 -165 95 -19 11 -48 27 -65 37 -16 10 -48
28 -70 41 -204 115 -274 156 -297 171 -15 11 -29 19 -32 19 -4 0 -271 152
-316 180 -23 14 -227 131 -295 169 -33 18 -81 46 -108 62 -26 16 -51 29 -56
29 -5 0 -16 6 -23 13 -7 7 -44 30 -83 51 -38 22 -110 62 -160 91 -49 29 -108
63 -130 75 -22 13 -60 34 -85 48 -25 14 -78 45 -118 69 -41 24 -76 43 -79 43
-3 0 -17 8 -31 19 -15 10 -49 31 -77 45 -27 15 -72 41 -100 57 -27 16 -61 35
-75 42 -14 6 -31 17 -38 24 -7 7 -18 13 -24 13 -5 0 -22 8 -36 18 -15 11 -52
33 -82 49 -30 17 -99 56 -152 87 -53 31 -102 56 -107 56 -6 0 -11 4 -11 8 0 4
-24 20 -52 35 -29 15 -60 32 -68 37 -56 35 -190 108 -215 118 -46 17 -118 35
-190 47 -16 3 -43 8 -60 11 -37 7 -399 16 -405 11z"/>
</g>
</svg>
